<svg width="80" height="80" viewBox="0 0 80 80" fill="none" xmlns="http://www.w3.org/2000/svg">
<g clip-path="url(#clip0_1_417)">
<path d="M37.6293 44.6185H42.3702C43.0177 44.6185 43.5426 44.0935 43.5426 43.446C43.5426 42.7985 43.0177 42.2735 42.3702 42.2735H37.6293C36.9818 42.2735 36.4568 42.7985 36.4568 43.446C36.4568 44.0935 36.9816 44.6185 37.6293 44.6185Z" fill="#FF9F00"/>
<path d="M34.6452 14.7018C34.153 14.2814 33.4127 14.3396 32.9922 14.8319L20.8161 29.0878C20.3955 29.5803 20.4538 30.3203 20.9461 30.7408C21.167 30.9295 21.4378 31.0218 21.7071 31.0218C22.0382 31.0218 22.3673 30.8822 22.5993 30.6108L34.7755 16.3548C35.1958 15.8624 35.1375 15.1223 34.6452 14.7018Z" fill="#FF9F00"/>
<path d="M20.9284 23.2178C21.1518 23.4163 21.4299 23.514 21.7069 23.514C22.0302 23.514 22.3521 23.3812 22.5836 23.1206L25.8748 19.4179C26.305 18.9339 26.2614 18.1929 25.7774 17.7627C25.2933 17.3325 24.5523 17.3761 24.1222 17.8601L20.831 21.5627C20.401 22.0466 20.4446 22.7876 20.9284 23.2178Z" fill="#FF9F00"/>
<path d="M69.0356 65.4609C68.7163 64.4541 67.7924 63.7777 66.7363 63.7777H27.0699C26.4224 63.7777 25.8975 64.3027 25.8975 64.9502C25.8975 65.5977 26.4224 66.1226 27.0699 66.1226H66.7364C66.7658 66.1226 66.7916 66.1416 66.8004 66.1694L70.413 77.5678C70.4166 77.5791 70.4231 77.6002 70.4031 77.6277C70.3831 77.655 70.3609 77.655 70.349 77.655H9.65004C9.63816 77.655 9.61612 77.655 9.59595 77.6277C9.57594 77.6002 9.58251 77.5791 9.5861 77.5678L13.1987 66.1694C13.2076 66.1414 13.2333 66.1226 13.2627 66.1226H21.7774C22.4249 66.1226 22.9499 65.5977 22.9499 64.9502C22.9499 64.3027 22.4249 63.7777 21.7774 63.7777H13.2628C12.2066 63.7777 11.2826 64.4541 10.9635 65.4609L7.35091 76.8593C7.11595 77.6005 7.2446 78.3854 7.7039 79.0128C8.16319 79.6401 8.87262 80 9.65004 80H70.3489C71.1265 80 71.8357 79.6401 72.295 79.0128C72.7543 78.3854 72.883 77.6005 72.648 76.8593L69.0356 65.4609Z" fill="#FF9F00"/>
<path d="M70.9487 -1.52588e-05H9.05096C6.46559 -1.52588e-05 4.36218 2.10339 4.36218 4.68876V44.3987C4.36218 46.9841 6.46559 49.0875 9.05096 49.0875H32.0731C31.9926 51.4431 31.7612 55.3514 31.2564 57.5429H26.2098C25.5623 57.5429 25.0373 58.0678 25.0373 58.7153C25.0373 59.3628 25.5623 59.8878 26.2098 59.8878H53.7902C54.4377 59.8878 54.9626 59.3628 54.9626 58.7153C54.9626 58.0678 54.4377 57.5429 53.7902 57.5429H48.7435C48.2388 55.3514 48.0074 51.4431 47.9269 49.0875H70.949C73.5344 49.0875 75.6378 46.9841 75.6378 44.3987V4.68876C75.6375 2.10339 73.534 -1.52588e-05 70.9487 -1.52588e-05V-1.52588e-05ZM33.6504 57.5429C34.1677 54.8925 34.3549 51.0086 34.4186 49.0875H45.5808C45.6446 51.0086 45.8318 54.8925 46.349 57.5429H33.6504ZM73.2925 44.3987C73.2925 45.6911 72.2411 46.7425 70.9487 46.7425H9.05096C7.75859 46.7425 6.70712 45.6911 6.70712 44.3987V40.1495H73.2927V44.3987H73.2925ZM73.2925 37.8046H70.2125V20.498C70.2125 19.8505 69.6876 19.3255 69.0401 19.3255C68.3925 19.3255 67.8676 19.8505 67.8676 20.498V37.8046H12.1321V7.94807C12.1321 7.7772 12.271 7.63823 12.4419 7.63823H67.5577C67.7286 7.63823 67.8676 7.7772 67.8676 7.94807V15.1333C67.8676 15.7808 68.3925 16.3057 69.0401 16.3057C69.6876 16.3057 70.2125 15.7808 70.2125 15.1333V7.94807C70.2125 6.4842 69.0216 5.29329 67.5577 5.29329H12.4419C10.978 5.29329 9.78711 6.4842 9.78711 7.94807V37.8046H6.70712V4.68876C6.70712 3.39639 7.75859 2.34492 9.05096 2.34492H70.9487C72.2411 2.34492 73.2925 3.39639 73.2925 4.68876V37.8046Z" fill="#FF9F00"/>
<path d="M21.778 68.6183H20.187C19.5395 68.6183 19.0145 69.1432 19.0145 69.7907C19.0145 70.4383 19.5395 70.9632 20.187 70.9632H21.778C22.4255 70.9632 22.9504 70.4383 22.9504 69.7907C22.9504 69.1432 22.4255 68.6183 21.778 68.6183Z" fill="#FF9F00"/>
<path d="M26.5508 70.9632H28.1418C28.7893 70.9632 29.3143 70.4383 29.3143 69.7907C29.3143 69.1432 28.7893 68.6183 28.1418 68.6183H26.5508C25.9033 68.6183 25.3784 69.1432 25.3784 69.7907C25.3784 70.4383 25.9033 70.9632 26.5508 70.9632Z" fill="#FF9F00"/>
<path d="M32.9145 70.9632H34.5055C35.153 70.9632 35.678 70.4383 35.678 69.7907C35.678 69.1432 35.153 68.6183 34.5055 68.6183H32.9145C32.267 68.6183 31.7421 69.1432 31.7421 69.7907C31.7421 70.4383 32.267 70.9632 32.9145 70.9632Z" fill="#FF9F00"/>
<path d="M39.2787 70.9632H40.8697C41.5172 70.9632 42.0422 70.4383 42.0422 69.7907C42.0422 69.1432 41.5172 68.6183 40.8697 68.6183H39.2787C38.6312 68.6183 38.1063 69.1432 38.1063 69.7907C38.1063 70.4383 38.6312 70.9632 39.2787 70.9632Z" fill="#FF9F00"/>
<path d="M45.6427 70.9632H47.2336C47.8812 70.9632 48.4061 70.4383 48.4061 69.7907C48.4061 69.1432 47.8812 68.6183 47.2336 68.6183H45.6427C44.9952 68.6183 44.4702 69.1432 44.4702 69.7907C44.4702 70.4383 44.9952 70.9632 45.6427 70.9632Z" fill="#FF9F00"/>
<path d="M52.0065 70.9632H53.5974C54.2449 70.9632 54.7699 70.4383 54.7699 69.7907C54.7699 69.1432 54.2449 68.6183 53.5974 68.6183H52.0065C51.3589 68.6183 50.834 69.1432 50.834 69.7907C50.834 70.4383 51.3589 70.9632 52.0065 70.9632Z" fill="#FF9F00"/>
<path d="M58.2218 70.9632H59.8127C60.4603 70.9632 60.9852 70.4383 60.9852 69.7907C60.9852 69.1432 60.4603 68.6183 59.8127 68.6183H58.2218C57.5743 68.6183 57.0493 69.1432 57.0493 69.7907C57.0493 70.4383 57.5743 70.9632 58.2218 70.9632Z" fill="#FF9F00"/>
<path d="M21.778 72.8147H20.187C19.5395 72.8147 19.0145 73.3396 19.0145 73.9871C19.0145 74.6347 19.5395 75.1596 20.187 75.1596H21.778C22.4255 75.1596 22.9504 74.6347 22.9504 73.9871C22.9504 73.3396 22.4255 72.8147 21.778 72.8147Z" fill="#FF9F00"/>
<path d="M26.5508 75.1596H28.1418C28.7893 75.1596 29.3143 74.6347 29.3143 73.9871C29.3143 73.3396 28.7893 72.8147 28.1418 72.8147H26.5508C25.9033 72.8147 25.3784 73.3396 25.3784 73.9871C25.3784 74.6347 25.9033 75.1596 26.5508 75.1596Z" fill="#FF9F00"/>
<path d="M32.9145 75.1596H34.5055C35.153 75.1596 35.678 74.6347 35.678 73.9871C35.678 73.3396 35.153 72.8147 34.5055 72.8147H32.9145C32.267 72.8147 31.7421 73.3396 31.7421 73.9871C31.7421 74.6347 32.267 75.1596 32.9145 75.1596Z" fill="#FF9F00"/>
<path d="M39.2787 75.1596H40.8697C41.5172 75.1596 42.0422 74.6347 42.0422 73.9871C42.0422 73.3396 41.5172 72.8147 40.8697 72.8147H39.2787C38.6312 72.8147 38.1063 73.3396 38.1063 73.9871C38.1063 74.6347 38.6312 75.1596 39.2787 75.1596Z" fill="#FF9F00"/>
<path d="M45.6427 75.1596H47.2336C47.8812 75.1596 48.4061 74.6347 48.4061 73.9871C48.4061 73.3396 47.8812 72.8147 47.2336 72.8147H45.6427C44.9952 72.8147 44.4702 73.3396 44.4702 73.9871C44.4702 74.6347 44.9952 75.1596 45.6427 75.1596Z" fill="#FF9F00"/>
<path d="M52.0065 75.1596H53.5974C54.2449 75.1596 54.7699 74.6347 54.7699 73.9871C54.7699 73.3396 54.2449 72.8147 53.5974 72.8147H52.0065C51.3589 72.8147 50.834 73.3396 50.834 73.9871C50.834 74.6347 51.3589 75.1596 52.0065 75.1596Z" fill="#FF9F00"/>
<path d="M58.2218 75.1596H59.8127C60.4603 75.1596 60.9852 74.6347 60.9852 73.9871C60.9852 73.3396 60.4603 72.8147 59.8127 72.8147H58.2218C57.5743 72.8147 57.0493 73.3396 57.0493 73.9871C57.0493 74.6347 57.5743 75.1596 58.2218 75.1596Z" fill="#FF9F00"/>
</g>
<defs>
<clipPath id="clip0_1_417">
<rect width="80" height="80" fill="white"/>
</clipPath>
</defs>
</svg>
