<svg width="80" height="80" viewBox="0 0 80 80" fill="none" xmlns="http://www.w3.org/2000/svg">
<path d="M41.25 71.25H61.25V73.75H41.25V71.25Z" fill="#FF9F00"/>
<path d="M58.75 66.25H61.25V68.75H58.75V66.25Z" fill="#FF9F00"/>
<path d="M41.25 66.25H56.25V68.75H41.25V66.25Z" fill="#FF9F00"/>
<path d="M31.25 66.25H23.75C22.3712 66.25 21.25 67.3712 21.25 68.75V71.25C21.25 72.6287 22.3712 73.75 23.75 73.75H31.25C32.6287 73.75 33.75 72.6287 33.75 71.25V68.75C33.75 67.3712 32.6287 66.25 31.25 66.25ZM23.75 71.25V68.75H31.25L31.2512 71.25H23.75Z" fill="#FF9F00"/>
<path d="M16.25 66.25H8.75C7.37125 66.25 6.25 67.3712 6.25 68.75V71.25C6.25 72.6287 7.37125 73.75 8.75 73.75H16.25C17.6287 73.75 18.75 72.6287 18.75 71.25V68.75C18.75 67.3712 17.6287 66.25 16.25 66.25ZM8.75 71.25V68.75H16.25L16.2513 71.25H8.75Z" fill="#FF9F00"/>
<path d="M41.25 61.25H61.25V63.75H41.25V61.25Z" fill="#FF9F00"/>
<path d="M30 46.25H32.5V58.75H30V61.25H37.5V58.75H35V46.25H37.5V43.75H30V46.25Z" fill="#FF9F00"/>
<path d="M21.25 53.75H23.75C26.5075 53.75 28.75 51.5075 28.75 48.75C28.75 45.9925 26.5075 43.75 23.75 43.75H18.75V61.25H21.25V53.75ZM21.25 46.25H23.75C25.1287 46.25 26.25 47.3712 26.25 48.75C26.25 50.1287 25.1287 51.25 23.75 51.25H21.25V46.25Z" fill="#FF9F00"/>
<path d="M8.75 56.25H13.75V61.25H16.25V48.75C16.25 45.9925 14.0075 43.75 11.25 43.75C8.4925 43.75 6.25 45.9925 6.25 48.75V61.25H8.75V56.25ZM11.25 46.25C12.6287 46.25 13.75 47.3712 13.75 48.75V53.75H8.75V48.75C8.75 47.3712 9.87125 46.25 11.25 46.25Z" fill="#FF9F00"/>
<path d="M41.25 58.75H61.25V38.75H41.25V58.75ZM43.75 41.25H58.75V56.25H43.75V41.25Z" fill="#FF9F00"/>
<path d="M16.25 31.25H18.75V33.75H16.25V31.25Z" fill="#FF9F00"/>
<path d="M11.25 31.25H13.75V33.75H11.25V31.25Z" fill="#FF9F00"/>
<path d="M6.25 31.25H8.75V33.75H6.25V31.25Z" fill="#FF9F00"/>
<path d="M78.75 20C78.75 9.66125 70.3388 1.25 60 1.25C52.8213 1.25 46.5788 5.31 43.43 11.25H33.0175L30.5175 8.75H21.02C20.5025 7.29875 19.1275 6.25 17.5 6.25C15.4325 6.25 13.75 7.9325 13.75 10C13.75 12.0675 15.4325 13.75 17.5 13.75C19.1275 13.75 20.5025 12.7013 21.02 11.25H29.4825L31.9825 13.75H42.3438C41.6488 15.7087 41.25 17.8062 41.25 20C41.25 20.42 41.2912 20.8337 41.32 21.25H38.0188L35.5188 18.75H26.0212C25.5037 17.2987 24.1287 16.25 22.5012 16.25C20.4338 16.25 18.7513 17.9325 18.7513 20C18.7513 22.0675 20.4338 23.75 22.5012 23.75C24.1287 23.75 25.5037 22.7013 26.0212 21.25H34.4837L36.9837 23.75H41.65C41.825 24.595 42.0513 25.43 42.345 26.25H5C2.9325 26.25 1.25 27.9325 1.25 30V75C1.25 77.0675 2.9325 78.75 5 78.75H62.5C64.5675 78.75 66.25 77.0675 66.25 75V37.6562C73.6513 35.0312 78.75 27.9112 78.75 20ZM17.5 11.25C16.8112 11.25 16.25 10.6888 16.25 10C16.25 9.31125 16.8112 8.75 17.5 8.75C18.1887 8.75 18.75 9.31125 18.75 10C18.75 10.6888 18.1887 11.25 17.5 11.25ZM22.5 21.25C21.8113 21.25 21.25 20.6887 21.25 20C21.25 19.3113 21.8113 18.75 22.5 18.75C23.1887 18.75 23.75 19.3113 23.75 20C23.75 20.6887 23.1887 21.25 22.5 21.25ZM54.2712 26.25C53.9975 24.6513 53.8325 22.9788 53.7787 21.25H66.21C66.1387 23.52 65.8888 25.7075 65.4475 27.7087C64.76 26.8275 63.7012 26.25 62.5 26.25H54.2712ZM43.8137 18.75C44.025 16.0025 44.9175 13.4475 46.3288 11.25H52.2013C51.6738 13.4937 51.3537 16.025 51.2775 18.75H43.8137ZM54.7937 11.25H65.2063C65.7663 13.4012 66.1375 15.9325 66.2237 18.75H53.7775C53.8625 15.9325 54.235 13.4012 54.7937 11.25ZM60 3.75C61.5537 3.75 63.1975 5.60875 64.41 8.75H55.5888C56.8025 5.60875 58.4463 3.75 60 3.75ZM76.1862 18.75H68.7225C68.6462 16.025 68.3262 13.4937 67.7988 11.25H73.6712C75.0825 13.4475 75.9762 16.0025 76.1862 18.75ZM68.7087 21.25H76.1975C75.985 23.96 75.085 26.5275 73.6575 28.75H67.76C68.3112 26.4363 68.6312 23.895 68.7087 21.25ZM71.6988 8.75H67.0825C66.5325 7.13125 65.865 5.72375 65.0975 4.58125C67.6325 5.42125 69.8875 6.8675 71.6988 8.75ZM54.9025 4.58125C54.1338 5.72375 53.4663 7.13125 52.9163 8.75H48.3C50.1125 6.8675 52.3675 5.42125 54.9025 4.58125ZM43.82 21.25H51.28C51.33 22.97 51.48 24.6425 51.735 26.25H45.0438C44.3638 24.6388 43.9525 22.9662 43.82 21.25ZM5 28.75H62.5C63.1888 28.75 63.75 29.3113 63.75 30V33.75H23.2325L20.7325 36.25H3.75V30C3.75 29.3113 4.31125 28.75 5 28.75ZM62.5 76.25H5C4.31125 76.25 3.75 75.6888 3.75 75V38.75H21.7675L24.2675 36.25H63.75V75C63.75 75.6888 63.1888 76.25 62.5 76.25ZM66.25 34.9813V31.25H71.6762C70.1575 32.8312 68.3225 34.1138 66.25 34.9813Z" fill="#FF9F00"/>
<path d="M61.25 13.75H63.75V16.25H61.25V13.75Z" fill="#FF9F00"/>
<path d="M56.25 13.75H58.75V16.25H56.25V13.75Z" fill="#FF9F00"/>
</svg>
