<svg width="80" height="80" viewBox="0 0 80 80" fill="none" xmlns="http://www.w3.org/2000/svg">
<g clip-path="url(#clip0_1_457)">
<path d="M68.3333 63.3317H41.6667C40.7467 63.3317 40 64.0784 40 64.9984C40 65.9184 40.7467 66.6652 41.6667 66.6652H68.3334C69.2534 66.6652 70.0002 65.9184 70.0002 64.9984C70.0002 64.0784 69.2533 63.3317 68.3333 63.3317Z" fill="#FF9F00"/>
<path d="M68.3333 69.9983H41.6667C40.7467 69.9983 40 70.745 40 71.665C40 72.585 40.7467 73.3317 41.6667 73.3317H68.3334C69.2534 73.3317 70.0002 72.585 70.0002 71.665C70 70.745 69.2533 69.9983 68.3333 69.9983Z" fill="#FF9F00"/>
<path d="M11.6668 63.3317C8.91009 63.3317 6.66681 65.575 6.66681 68.3317C6.66681 71.0884 8.91009 73.3317 11.6668 73.3317C14.4235 73.3317 16.6668 71.0884 16.6668 68.3317C16.6668 65.575 14.4234 63.3317 11.6668 63.3317ZM11.6668 69.9983C10.7468 69.9983 10.0001 69.2516 10.0001 68.3316C10.0001 67.4116 10.7468 66.6649 11.6668 66.6649C12.5868 66.6649 13.3335 67.4116 13.3335 68.3316C13.3334 69.2517 12.5868 69.9983 11.6668 69.9983Z" fill="#FF9F00"/>
<path d="M11.6668 43.3317C8.91009 43.3317 6.66681 45.575 6.66681 48.3317C6.66681 51.0884 8.91009 53.3317 11.6668 53.3317C14.4235 53.3317 16.6668 51.0884 16.6668 48.3317C16.6668 45.575 14.4234 43.3317 11.6668 43.3317ZM11.6668 49.9983C10.7468 49.9983 10.0001 49.2516 10.0001 48.3316C10.0001 47.4116 10.7468 46.6649 11.6668 46.6649C12.5868 46.6649 13.3335 47.4116 13.3335 48.3316C13.3335 49.2516 12.5868 49.9983 11.6668 49.9983Z" fill="#FF9F00"/>
<path d="M68.3333 29.9982H41.6667C40.7467 29.9982 40 30.7449 40 31.6649C40 32.5849 40.7467 33.3317 41.6667 33.3317H68.3334C69.2534 33.3317 70.0002 32.5849 70.0002 31.6649C70.0002 30.7449 69.2533 29.9982 68.3333 29.9982Z" fill="#FF9F00"/>
<path d="M80 31.6654V24.9987C80 23.3987 79.5233 21.9154 78.7367 20.642C78.7134 20.5953 78.71 20.542 78.6834 20.4987L68.3767 3.93214C66.8467 1.47214 64.2 0.00213623 61.3 0.00213623H18.71C15.8067 0.00213623 13.1633 1.47214 11.6333 3.93214L1.32672 20.4987C1.31 20.5254 1.31 20.5554 1.29344 20.5854C0.486719 21.8687 0 23.3754 0 24.9987V31.6654C0 34.3987 1.34328 36.8121 3.38672 38.3321C1.34328 39.8554 0 42.2654 0 44.9987V51.6654C0 54.3987 1.34328 56.8121 3.38672 58.3321C1.34328 59.8554 0 62.2654 0 64.9987V71.6654C0 76.2587 3.74 79.9987 8.33328 79.9987H71.6666C76.2598 79.9987 79.9998 76.2587 79.9998 71.6654V64.9987C79.9998 62.2654 78.6566 59.852 76.6131 58.332C78.6567 56.8121 80 54.3987 80 51.6654V44.9987C80 42.2654 78.6567 39.852 76.6133 38.332C78.6567 36.8121 80 34.4021 80 31.6654ZM14.4633 5.69214C15.38 4.21542 16.9666 3.33214 18.7066 3.33214H61.2966C63.0366 3.33214 64.6233 4.21542 65.5398 5.69214L72.4166 16.7421C72.1666 16.7189 71.9233 16.6654 71.6666 16.6654H8.33328C8.07656 16.6654 7.83656 16.7187 7.58656 16.7421L14.4633 5.69214ZM76.6667 64.9987V71.6654C76.6667 74.4221 74.4234 76.6654 71.6667 76.6654H8.33328C5.57656 76.6654 3.33328 74.4221 3.33328 71.6654V64.9987C3.33328 62.242 5.57656 59.9987 8.33328 59.9987H71.6666C74.4233 59.9987 76.6667 62.2421 76.6667 64.9987ZM76.6667 44.9987V51.6654C76.6667 54.4221 74.4234 56.6654 71.6667 56.6654H8.33328C5.57656 56.6654 3.33328 54.4221 3.33328 51.6654V44.9987C3.33328 42.242 5.57656 39.9987 8.33328 39.9987H71.6666C74.4233 39.9987 76.6667 42.2421 76.6667 44.9987ZM76.6667 31.6654C76.6667 34.4221 74.4234 36.6654 71.6667 36.6654H8.33328C5.57656 36.6654 3.33328 34.4221 3.33328 31.6654V24.9987C3.33328 22.242 5.57656 19.9987 8.33328 19.9987H71.6666C74.4233 19.9987 76.6666 22.242 76.6666 24.9987V31.6654H76.6667Z" fill="#FF9F00"/>
<path d="M68.3333 23.3317H41.6667C40.7467 23.3317 40 24.0784 40 24.9984C40 25.9184 40.7467 26.6651 41.6667 26.6651H68.3334C69.2534 26.6651 70.0002 25.9184 70.0002 24.9984C70.0002 24.0784 69.2533 23.3317 68.3333 23.3317Z" fill="#FF9F00"/>
<path d="M68.3333 49.9983H41.6667C40.7467 49.9983 40 50.745 40 51.665C40 52.585 40.7467 53.3317 41.6667 53.3317H68.3334C69.2534 53.3317 70.0002 52.585 70.0002 51.665C70.0002 50.745 69.2533 49.9983 68.3333 49.9983Z" fill="#FF9F00"/>
<path d="M68.3333 43.3317H41.6667C40.7467 43.3317 40 44.0784 40 44.9984C40 45.9184 40.7467 46.6652 41.6667 46.6652H68.3334C69.2534 46.6652 70.0002 45.9184 70.0002 44.9984C70.0002 44.0784 69.2533 43.3317 68.3333 43.3317Z" fill="#FF9F00"/>
<path d="M11.6668 23.3317C8.91009 23.3317 6.66681 25.5749 6.66681 28.3317C6.66681 31.0884 8.91009 33.3317 11.6668 33.3317C14.4235 33.3317 16.6668 31.0884 16.6668 28.3317C16.6668 25.5749 14.4234 23.3317 11.6668 23.3317ZM11.6668 29.9982C10.7468 29.9982 10.0001 29.2515 10.0001 28.3315C10.0001 27.4115 10.7468 26.6648 11.6668 26.6648C12.5868 26.6648 13.3335 27.4115 13.3335 28.3315C13.3335 29.2515 12.5868 29.9982 11.6668 29.9982Z" fill="#FF9F00"/>
</g>
<defs>
<clipPath id="clip0_1_457">
<rect width="80" height="80" fill="white"/>
</clipPath>
</defs>
</svg>
