<svg width="80" height="80" viewBox="0 0 80 80" fill="none" xmlns="http://www.w3.org/2000/svg">
<path d="M73.75 70C72.1225 70 70.7475 71.0487 70.23 72.5H47.5V67.5H45V73.75C45 74.4412 45.5588 75 46.25 75H70.23C70.7475 76.4513 72.1225 77.5 73.75 77.5C75.8175 77.5 77.5 75.8175 77.5 73.75C77.5 71.6825 75.8175 70 73.75 70ZM73.75 75C73.06 75 72.5 74.44 72.5 73.75C72.5 73.06 73.06 72.5 73.75 72.5C74.44 72.5 75 73.06 75 73.75C75 74.44 74.44 75 73.75 75Z" fill="#FF9F00"/>
<path d="M73.75 36.25C72.1225 36.25 70.7475 37.2987 70.23 38.75H62.5V36.25C62.5 35.5588 61.9412 35 61.25 35H59.12C57.4275 35 56.37 33.9037 55.945 32.8787C55.52 31.8538 55.4925 30.33 56.69 29.1325L58.1963 27.6262C58.685 27.1375 58.685 26.3475 58.1963 25.8588L52.8925 20.555C52.4037 20.0663 51.6138 20.0663 51.125 20.555L49.6188 22.0613C48.42 23.26 46.895 23.2313 45.8725 22.8063C44.8475 22.3813 43.7513 21.3238 43.7513 19.6312V17.5C43.7513 16.8088 43.1925 16.25 42.5013 16.25H34.7712C34.2537 14.7987 32.8787 13.75 31.2512 13.75H27.5012H26.2512H11.25H10H6.25C4.1825 13.75 2.5 15.4325 2.5 17.5V62.5C2.5 64.5675 4.1825 66.25 6.25 66.25H31.25C32.8775 66.25 34.2525 65.2012 34.77 63.75H42.5C43.1912 63.75 43.75 63.1912 43.75 62.5V60.37C43.75 58.6775 44.8462 57.62 45.8712 57.195C46.8937 56.7713 48.4188 56.7413 49.6175 57.94L51.1237 59.4463C51.6125 59.935 52.4025 59.935 52.8913 59.4463L58.195 54.1425C58.6838 53.6537 58.6838 52.8638 58.195 52.375L56.6888 50.8688C55.4913 49.6712 55.5188 48.1475 55.9438 47.1225C56.3688 46.0975 57.4263 45 59.12 45H61.25C61.9412 45 62.5 44.4412 62.5 43.75V41.25H70.23C70.7475 42.7013 72.1225 43.75 73.75 43.75C75.8175 43.75 77.5 42.0675 77.5 40C77.5 37.9325 75.8175 36.25 73.75 36.25ZM35 29.4088C36.2075 28.98 37.4625 28.75 38.75 28.75C44.9538 28.75 50 33.7962 50 40C50 46.2038 44.9538 51.25 38.75 51.25C37.4625 51.25 36.2075 51.02 35 50.5912V29.4088ZM22.73 16.25C22.59 16.6425 22.5 17.06 22.5 17.5C22.5 18.19 21.94 18.75 21.25 18.75H16.25C15.56 18.75 15 18.19 15 17.5C15 17.06 14.91 16.6425 14.77 16.25H22.73ZM32.5 62.5C32.5 63.19 31.94 63.75 31.25 63.75H6.25C5.56 63.75 5 63.19 5 62.5V17.5C5 16.81 5.56 16.25 6.25 16.25H10H11.25C11.94 16.25 12.5 16.81 12.5 17.5C12.5 19.5675 14.1825 21.25 16.25 21.25H21.25C23.3175 21.25 25 19.5675 25 17.5C25 16.81 25.56 16.25 26.25 16.25H27.5H31.25C31.94 16.25 32.5 16.81 32.5 17.5V62.5ZM60 42.5H59.12C56.6725 42.5 54.5713 43.9037 53.6338 46.165C52.6975 48.4263 53.1912 50.9062 54.9212 52.6363L55.5438 53.2587L52.0075 56.795L51.385 56.1725C49.6538 54.44 47.1763 53.95 44.9137 54.885C42.6538 55.8213 41.25 57.9225 41.25 60.37V61.25H35V53.2113C36.2175 53.5588 37.47 53.75 38.75 53.75C46.3312 53.75 52.5 47.5812 52.5 40C52.5 32.4188 46.3312 26.25 38.75 26.25C37.47 26.25 36.2175 26.4412 35 26.7887V18.75H41.25V19.63C41.25 22.0775 42.6537 24.1788 44.915 25.1163C47.1787 26.0538 49.6575 25.5587 51.3863 23.8287L52.0087 23.2063L55.545 26.7425L54.9225 27.365C53.1912 29.095 52.6987 31.575 53.635 33.8363C54.5713 36.0963 56.6725 37.5 59.12 37.5H60V42.5ZM73.75 41.25C73.06 41.25 72.5 40.69 72.5 40C72.5 39.31 73.06 38.75 73.75 38.75C74.44 38.75 75 39.31 75 40C75 40.69 74.44 41.25 73.75 41.25Z" fill="#FF9F00"/>
<path d="M73.7502 56.25C72.1227 56.25 70.7477 57.2987 70.2302 58.75H64.3752L61.0002 54.25L59.0002 55.75L62.7502 60.75C62.9852 61.065 63.3564 61.25 63.7502 61.25H70.2302C70.7477 62.7012 72.1227 63.75 73.7502 63.75C75.8177 63.75 77.5002 62.0675 77.5002 60C77.5002 57.9325 75.8177 56.25 73.7502 56.25ZM73.7502 61.25C73.0602 61.25 72.5002 60.69 72.5002 60C72.5002 59.31 73.0602 58.75 73.7502 58.75C74.4402 58.75 75.0002 59.31 75.0002 60C75.0002 60.69 74.4402 61.25 73.7502 61.25Z" fill="#FF9F00"/>
<path d="M28.75 23.75H8.75C8.05875 23.75 7.5 24.3088 7.5 25V58.75C7.5 59.4412 8.05875 60 8.75 60H28.75C29.4412 60 30 59.4412 30 58.75V25C30 24.3088 29.4412 23.75 28.75 23.75ZM27.5 26.25V28.75H10V26.25H27.5ZM10 57.5V31.25H27.5V57.5H10Z" fill="#FF9F00"/>
<path d="M20 51.25H25V53.75H20V51.25Z" fill="#FF9F00"/>
<path d="M17.5 33.75H20V36.25H17.5V33.75Z" fill="#FF9F00"/>
<path d="M12.5 33.75H15V36.25H12.5V33.75Z" fill="#FF9F00"/>
<path d="M73.7502 16.25C72.1227 16.25 70.7477 17.2987 70.2302 18.75H63.7502C63.3577 18.75 62.9864 18.935 62.7502 19.25L59.0002 24.25L61.0002 25.7488L64.3752 21.2488H70.2302C70.7477 22.7 72.1227 23.7488 73.7502 23.7488C75.8177 23.7488 77.5002 22.0662 77.5002 19.9987C77.5002 17.9312 75.8177 16.25 73.7502 16.25ZM73.7502 21.25C73.0602 21.25 72.5002 20.69 72.5002 20C72.5002 19.31 73.0602 18.75 73.7502 18.75C74.4402 18.75 75.0002 19.31 75.0002 20C75.0002 20.69 74.4402 21.25 73.7502 21.25Z" fill="#FF9F00"/>
<path d="M73.75 2.5C72.1225 2.5 70.7475 3.54875 70.23 5H46.25C45.5588 5 45 5.55875 45 6.25V12.5H47.5V7.5H70.23C70.7475 8.95125 72.1225 10 73.75 10C75.8175 10 77.5 8.3175 77.5 6.25C77.5 4.1825 75.8175 2.5 73.75 2.5ZM73.75 7.5C73.06 7.5 72.5 6.94 72.5 6.25C72.5 5.56 73.06 5 73.75 5C74.44 5 75 5.56 75 6.25C75 6.94 74.44 7.5 73.75 7.5Z" fill="#FF9F00"/>
</svg>
